<svg xmlns="http://www.w3.org/2000/svg" viewBox="0 0 841.9 595.3"><g fill="#61DAFB"><path d="M666.3 296.5c0-32.5-40.7-63.3-103.1-82.4 14.4-63.6 8-114.2-20.2-130.4-6.5-3.8-14.1-5.6-22.4-5.6v22.3c4.6 0 8.3.9 11.4 2.6 13.6 7.8 19.5 37.5 14.9 75.7-1.1 9.4-2.9 19.3-5.1 29.4-19.6-4.8-41-8.5-63.5-10.9-13.5-18.5-27.5-35.3-41.6-50 32.6-30.3 63.2-46.9 84-46.9V78c-27.5 0-63.5 19.6-99.9 53.6-36.4-33.8-72.4-53.2-99.9-53.2v22.3c20.7 0 51.4 16.5 84 46.6-14 14.7-28 31.4-41.3 49.9-22.6 2.4-44 6.1-63.6 11-2.3-10-4-19.7-5.2-29-4.7-38.2 1.1-67.9 14.6-75.8 3-1.8 6.9-2.6 11.5-2.6V78.5c-8.4 0-16 1.8-22.6 5.6-28.1 16.2-34.4 66.7-19.9 130.1-62.2 19.2-102.7 49.9-102.7 82.3 0 32.5 40.7 63.3 103.1 82.4-14.4 63.6-8 114.2 20.2 130.4 6.5 3.8 14.1 5.6 22.5 5.6 27.5 0 63.5-19.6 99.9-53.6 36.4 33.8 72.4 53.2 99.9 53.2 8.4 0 16-1.8 22.6-5.6 28.1-16.2 34.4-66.7 19.9-130.1 62-19.1 102.5-49.9 102.5-82.3zm-130.2-66.7c-3.7 12.9-8.3 26.2-13.5 39.5-4.1-8-8.4-16-13.1-24-4.6-8-9.5-15.8-14.4-23.4 14.2 2.1 27.9 4.7 41 7.9zm-45.8 106.5c-7.8 13.5-15.8 26.3-24.1 38.2-14.9 1.3-30 2-45.2 2-15.1 0-30.2-.7-45-1.9-8.3-11.9-16.4-24.6-24.2-38-7.6-13.1-14.5-26.4-20.8-39.8 6.2-13.4 13.2-26.8 20.7-39.9 7.8-13.5 15.8-26.3 24.1-38.2 14.9-1.3 30-2 45.2-2 15.1 0 30.2.7 45 1.9 8.3 11.9 16.4 24.6 24.2 38 7.6 13.1 14.5 26.4 20.8 39.8-6.3 13.4-13.2 26.8-20.7 39.9zm32.3-13c5.4 13.4 10 26.8 13.8 39.8-13.1 3.2-26.9 5.9-41.2 8 4.9-7.7 9.8-15.6 14.4-23.7 4.6-8 8.9-16.1 13-24.1zM421.2 430c-9.3-9.6-18.6-20.3-27.8-32 9 .4 18.2.7 27.5.7 9.4 0 18.7-.2 27.8-.7-9 11.7-18.3 22.4-27.5 32zm-74.4-58.9c-14.2-2.1-27.9-4.7-41-7.9 3.7-12.9 8.3-26.2 13.5-39.5 4.1 8 8.4 16 13.1 24 4.7 8 9.5 15.8 14.4 23.4zM420.7 163c9.3 9.6 18.6 20.3 27.8 32-9-.4-18.2-.7-27.5-.7-9.4 0-18.7.2-27.8.7 9-11.7 18.3-22.4 27.5-32zm-74 58.9c-4.9 7.7-9.8 15.6-14.4 23.7-4.6 8-8.9 16-13 24-5.4-13.4-10-26.8-13.8-39.8 13.1-3.1 26.9-5.8 41.2-7.9zm-90.5 125.2c-35.4-15.1-58.3-34.9-58.3-50.6 0-15.7 22.9-35.6 58.3-50.6 8.6-3.7 18-7 27.7-10.1 5.7 19.6 13.2 40 22.5 60.9-9.2 20.8-16.6 41.1-22.2 60.6-9.9-3.1-19.3-6.5-28-10.2zM310 490c-13.6-7.8-19.5-37.5-14.9-75.7 1.1-9.4 2.9-19.3 5.1-29.4 19.6 4.8 41 8.5 63.5 10.9 13.5 18.5 27.5 35.3 41.6 50-32.6 30.3-63.2 46.9-84 46.9-4.5-.1-8.3-1-11.3-2.7zm237.2-76.2c4.7 38.2-1.1 67.9-14.6 75.8-3 1.8-6.9 2.6-11.5 2.6-20.7 0-51.4-16.5-84-46.6 14-14.7 28-31.4 41.3-49.9 22.6-2.4 44-6.1 63.6-11 2.3 10.1 4.1 19.8 5.2 29.1zm38.5-66.7c-8.6 3.7-18 7-27.7 10.1-5.7-19.6-13.2-40-22.5-60.9 9.2-20.8 16.6-41.1 22.2-60.6 9.9 3.1 19.3 6.5 28.1 10.2 35.4 15.1 58.3 34.9 58.3 50.6-.1 15.7-23 35.6-58.4 50.6zM320.8 78.4z"/><circle cx="420.9" cy="296.5" r="45.7"/>


 <path fill="#ff7700"
                    d="M255.63 280.76c23.99 0 47.98.01 71.98 0 13.72-.01 19.54-5.7 20.49-19.42 1.78-25.82-3.6-49.78-18.34-71.27-15.57-22.69-36.97-37.6-63.89-42.48-49.31-8.95-91.85 4-124.91 43-11.9 14.04-19.18 30.58-23.69 48.32-.64 2.52-1.51 3.17-3.9 3.16-22.99-.08-45.99.09-68.98-.14-12.38-.12-19.05-8.99-15.45-20.86 6.48-21.32 17.29-40.54 30.25-58.52 29.24-40.57 67.13-71.23 110.57-95.34 42.83-23.77 88.58-39.34 136.69-48.24 31.51-5.83 63.28-8.78 95.29-7.75 62.62 2.02 122.37 15.17 176.76 47.74 35.98 21.55 65.24 49.66 83.72 87.9 8.73 18.06 14.25 37.06 15.85 57.16.42 5.31.96 10.61.81 15.93-.39 13.94-8.35 21.98-22.25 22.02-34.16.1-68.31.03-102.47-.03-7.33-.01-14.57-1.1-21.61-3.12-14.53-4.17-21.92-13.92-22.61-29.15-.39-8.52.45-16.97 1.24-25.41.59-6.26 1.93-7.24 8.29-7.26 9-.03 17.99.03 26.99-.02 7.77-.04 12.73-4.67 13.44-12.42.43-4.63.84-9.27 1.3-13.9.79-7.95-3.39-12.6-11.5-12.64-9.16-.05-18.33.02-27.49-.03-5.14-.03-6.02-1.11-5.51-6.28.46-4.63 1.07-9.26 1.26-13.91.28-7.12-4.02-11.53-11.22-11.71-4.66-.12-9.33-.05-14-.02-9.09.06-13.97 4.89-14.78 14-1.97 22.19-4.08 44.36-6.21 66.53-1.38 14.29-1.66 28.5 1.06 42.71 5.26 27.42 22.68 42.44 48.93 48.61 12.69 2.99 25.62 3.82 38.6 3.86 25.49.07 50.98.03 76.48.02 3.67 0 7.32.08 10.87 1.18 7.63 2.37 11.32 8.71 9.81 16.62-2.01 10.52-7.19 19.55-13.01 28.29-26.3 39.49-60.84 70.22-101.03 94.93-46.58 28.63-97.07 46.9-150.65 57.11-34.47 6.57-69.26 9.38-104.26 7.76-59.83-2.77-116.92-16.13-168.88-47.11-36.15-21.55-65.64-49.8-84.19-88.2-7.59-15.72-13.39-32.13-14.52-49.8-.18-2.81-.1-5.68.24-8.48.95-7.83 5.83-12.24 13.72-12.27 24.99-.07 49.98-.01 74.98-.07 2.48-.01 3.84.31 4.17 3.38 5 47.09 36.12 82.52 82.22 93.85 6.29 1.55 12.62 2.82 19.13 3.07 6.67.26 11.65-3.5 12.67-10.01.82-5.25 1.48-10.54 1.87-15.84.66-8.89-3.2-13.19-12.07-14.26-17.23-2.08-32.22-8.75-44.12-21.74-10.25-11.19-15.8-24.63-17.48-39.41-2.63-23.23 1.83-44.99 16.05-64.15 26.39-35.58 79.5-42.82 111.91-15.39 10.72 9.07 17.71 20.56 21.65 33.96 1.59 5.41 1.12 6-4.64 6-29.16.02-58.32.02-87.47 0-4.33 0-8.65-.03-12.95.64-14.34 2.25-24.41 10.04-29.63 23.54-3.6 9.32.82 15.26 10.93 15.29 24.5.11 49 .07 73.49.07zM393.9 105.89c-2.5 0-4.99-.04-7.49.01-7.32.14-12.46 4.38-13.23 11.57-2.19 20.47-4.13 40.96-6.22 61.44-1.5 14.7-3.11 29.38-4.59 44.08-1.54 15.36-3.17 30.72-4.38 46.11-.55 7.05 3.62 11.39 10.57 11.71 5.31.24 10.66.27 15.97-.01 6.84-.37 11.8-5.04 12.48-11.37 1.64-15.18 3.26-30.37 4.83-45.56 3.65-35.34 7.28-70.67 10.91-106.01.67-6.49-3.85-11.73-10.38-11.94-2.81-.1-5.64-.02-8.47-.03zm36.21 174.98c2.66 0 5.33.12 7.99-.02 6.79-.38 12.09-4.83 12.79-11.09 1.47-13.2 2.73-26.42 4.05-39.63 1.83-18.17 3.55-36.35 5.5-54.5.75-6.96-2.37-11.88-9.24-12.79-6.43-.86-12.95-.88-19.38.03-5.76.81-10.01 5.26-10.76 10.85-.51 3.78-.74 7.6-1.12 11.4-1.53 15.19-3.12 30.38-4.6 45.58-1.26 12.89-2.54 25.78-3.53 38.69-.51 6.6 3.64 10.99 10.32 11.45 2.65.18 5.32.03 7.98.03zm15.91-175.9c-12.8-.06-22.97 9.87-23.04 22.5-.07 12.69 9.96 22.97 22.54 23.14 12.31.16 22.91-10.2 23.2-22.66.29-12.32-10.19-22.92-22.7-22.98z">
                  </path>

</g></svg>